<svg width="33" height="33" viewBox="0 0 33 33" fill="none" xmlns="http://www.w3.org/2000/svg">
<path d="M27.4451 12.3198C26.5239 11.3023 25.1351 10.7111 23.2101 10.5048V9.4598C23.2101 7.57605 22.4126 5.76105 21.0101 4.49605C19.5939 3.20355 17.7514 2.59855 15.8401 2.7773C12.5539 3.09355 9.79014 6.2698 9.79014 9.7073V10.5048C7.86514 10.7111 6.47639 11.3023 5.55514 12.3198C4.22139 13.8048 4.26264 15.7848 4.41389 17.1598L5.37639 24.8186C5.66514 27.4998 6.75139 30.2498 12.6639 30.2498H20.3364C26.2489 30.2498 27.3351 27.4998 27.6239 24.8323L28.5864 17.1461C28.7376 15.7848 28.7651 13.8048 27.4451 12.3198ZM16.0326 4.68855C17.4076 4.5648 18.7139 4.99105 19.7314 5.9123C20.7351 6.8198 21.2989 8.1123 21.2989 9.4598V10.4223H11.7014V9.7073C11.7014 7.2598 13.7226 4.90855 16.0326 4.68855ZM11.5776 18.0811H11.5639C10.8076 18.0811 10.1889 17.4623 10.1889 16.7061C10.1889 15.9498 10.8076 15.3311 11.5639 15.3311C12.3339 15.3311 12.9526 15.9498 12.9526 16.7061C12.9526 17.4623 12.3339 18.0811 11.5776 18.0811ZM21.2026 18.0811H21.1889C20.4326 18.0811 19.8139 17.4623 19.8139 16.7061C19.8139 15.9498 20.4326 15.3311 21.1889 15.3311C21.9589 15.3311 22.5776 15.9498 22.5776 16.7061C22.5776 17.4623 21.9589 18.0811 21.2026 18.0811Z" fill="#549D73"/>
</svg>
