<svg width="33" height="33" viewBox="0 0 33 33" fill="none" xmlns="http://www.w3.org/2000/svg">
<path d="M27.5551 9.37732L19.6351 3.83607C17.4763 2.32357 14.1626 2.40607 12.0863 4.01482L5.19758 9.39107C3.82258 10.4636 2.73633 12.6636 2.73633 14.3961V23.8836C2.73633 27.3898 5.58258 30.2498 9.08883 30.2498H23.9113C27.4176 30.2498 30.2638 27.4036 30.2638 23.8973V14.5748C30.2638 12.7186 29.0676 10.4361 27.5551 9.37732ZM17.5313 24.7498C17.5313 25.3136 17.0638 25.7811 16.5001 25.7811C15.9363 25.7811 15.4688 25.3136 15.4688 24.7498V20.6248C15.4688 20.0611 15.9363 19.5936 16.5001 19.5936C17.0638 19.5936 17.5313 20.0611 17.5313 20.6248V24.7498Z" fill="#549D73"/>
</svg>
