<svg width="24" height="24" viewBox="0 0 24 24" fill="none" xmlns="http://www.w3.org/2000/svg">
<path d="M18.6899 11.5298C18.1199 11.3798 17.4499 11.2998 16.6499 11.2998C15.5399 11.2998 15.1299 11.5698 14.5599 11.9998C14.5299 12.0198 14.4999 12.0498 14.4699 12.0798L13.5199 13.0898C12.7299 13.9398 11.2799 13.9398 10.4799 13.0898L9.52993 12.0898C9.49993 12.0498 9.46993 12.0198 9.43993 11.9998C8.85993 11.5698 8.44993 11.2998 7.34993 11.2998C6.54993 11.2998 5.87993 11.3698 5.30993 11.5298C2.92993 12.1698 2.92993 14.0598 2.92993 15.7198V16.6498C2.92993 19.1598 2.92993 21.9998 8.27993 21.9998H15.7199C19.2699 21.9998 21.0699 20.1998 21.0699 16.6498V15.7198C21.0699 14.0598 21.0699 12.1698 18.6899 11.5298Z" fill="#549D73"/>
<path opacity="0.4" d="M14.79 2H9.21004C4.79004 2 4.79004 4.35 4.79004 6.42V12.21C4.79004 12.43 4.89004 12.63 5.06004 12.76C5.23004 12.89 5.46004 12.94 5.67004 12.88C6.12004 12.76 6.68004 12.7 7.35004 12.7C8.02004 12.7 8.16004 12.78 8.56004 13.08L9.47004 14.04C10.12 14.74 11.05 15.14 12.01 15.14C12.97 15.14 13.89 14.74 14.55 14.04L15.46 13.08C15.86 12.78 16 12.7 16.67 12.7C17.34 12.7 17.9 12.76 18.35 12.88C18.56 12.94 18.78 12.89 18.96 12.76C19.13 12.63 19.23 12.42 19.23 12.21V6.42C19.21 4.35 19.21 2 14.79 2Z" fill="#549D73"/>
<path d="M13.55 9.90977H10.45C10.06 9.90977 9.75 9.59977 9.75 9.20977C9.75 8.81977 10.06 8.50977 10.45 8.50977H13.55C13.94 8.50977 14.25 8.81977 14.25 9.20977C14.25 9.58977 13.93 9.90977 13.55 9.90977Z" fill="#549D73"/>
<path d="M14.33 7.11973H9.66997C9.27997 7.11973 8.96997 6.80973 8.96997 6.41973C8.96997 6.02973 9.27997 5.71973 9.66997 5.71973H14.32C14.71 5.71973 15.02 6.02973 15.02 6.41973C15.02 6.79973 14.71 7.11973 14.33 7.11973Z" fill="#549D73"/>
</svg>
