<svg width="33" height="33" viewBox="0 0 33 33" fill="none" xmlns="http://www.w3.org/2000/svg">
<path d="M15.8125 28.875C23.0267 28.875 28.875 23.0267 28.875 15.8125C28.875 8.59828 23.0267 2.75 15.8125 2.75C8.59828 2.75 2.75 8.59828 2.75 15.8125C2.75 23.0267 8.59828 28.875 15.8125 28.875Z" fill="#549D73"/>
<path d="M29.2875 30.25C29.04 30.25 28.7925 30.1538 28.6138 29.975L26.0563 27.4175C25.685 27.0463 25.685 26.4413 26.0563 26.0563C26.4275 25.685 27.0325 25.685 27.4175 26.0563L29.975 28.6138C30.3463 28.985 30.3463 29.59 29.975 29.975C29.7825 30.1538 29.535 30.25 29.2875 30.25Z" fill="#549D73"/>
</svg>
