<svg width="33" height="33" viewBox="0 0 33 33" fill="none" xmlns="http://www.w3.org/2000/svg">
<path d="M27.6375 12.6775C25.1488 12.6775 24.1313 10.9175 25.3688 8.75872C26.0838 7.50747 25.6575 5.91247 24.4062 5.19747L22.0275 3.83622C20.9412 3.18997 19.5387 3.57497 18.8925 4.66122L18.7413 4.92247C17.5037 7.08122 15.4688 7.08122 14.2175 4.92247L14.0662 4.66122C13.4475 3.57497 12.045 3.18997 10.9587 3.83622L8.58 5.19747C7.32875 5.91247 6.9025 7.52122 7.6175 8.77247C8.86875 10.9175 7.85125 12.6775 5.3625 12.6775C3.9325 12.6775 2.75 13.8462 2.75 15.29V17.71C2.75 19.14 3.91875 20.3225 5.3625 20.3225C7.85125 20.3225 8.86875 22.0825 7.6175 24.2412C6.9025 25.4925 7.32875 27.0875 8.58 27.8025L10.9587 29.1637C12.045 29.81 13.4475 29.425 14.0938 28.3387L14.245 28.0775C15.4825 25.9187 17.5175 25.9187 18.7687 28.0775L18.92 28.3387C19.5662 29.425 20.9688 29.81 22.055 29.1637L24.4338 27.8025C25.685 27.0875 26.1112 25.4787 25.3962 24.2412C24.145 22.0825 25.1625 20.3225 27.6513 20.3225C29.0813 20.3225 30.2638 19.1537 30.2638 17.71V15.29C30.25 13.86 29.0813 12.6775 27.6375 12.6775ZM16.5 20.9687C14.0387 20.9687 12.0312 18.9612 12.0312 16.5C12.0312 14.0387 14.0387 12.0312 16.5 12.0312C18.9613 12.0312 20.9688 14.0387 20.9688 16.5C20.9688 18.9612 18.9613 20.9687 16.5 20.9687Z" fill="#549D73"/>
</svg>
