<svg width="33" height="33" viewBox="0 0 33 33" fill="none" xmlns="http://www.w3.org/2000/svg">
<path d="M30.745 11.3713L30.3463 7.5625C29.7688 3.41 27.885 1.71875 23.8563 1.71875H20.6113H18.5763H14.3963H12.3613H9.06126C5.01876 1.71875 3.14876 3.41 2.55751 7.60375L2.18626 11.385C2.04876 12.8562 2.44751 14.2863 3.31376 15.4C4.35876 16.7612 5.96751 17.5312 7.75501 17.5312C9.48751 17.5312 11.1513 16.665 12.1963 15.2762C13.1313 16.665 14.7263 17.5312 16.5 17.5312C18.2738 17.5312 19.8275 16.7062 20.7763 15.3312C21.835 16.6925 23.4713 17.5312 25.1763 17.5312C27.005 17.5312 28.655 16.72 29.6863 15.29C30.5113 14.19 30.8825 12.8013 30.745 11.3713Z" fill="#549D73"/>
<path d="M15.6063 22.9073C13.86 23.0861 12.54 24.5711 12.54 26.3311V30.0986C12.54 30.4698 12.8425 30.7723 13.2138 30.7723H19.7725C20.1438 30.7723 20.4463 30.4698 20.4463 30.0986V26.8123C20.46 23.9386 18.7688 22.5773 15.6063 22.9073Z" fill="#549D73"/>
<path d="M29.3837 19.7999V23.8974C29.3837 27.6924 26.3037 30.7724 22.5087 30.7724C22.1375 30.7724 21.835 30.4699 21.835 30.0986V26.8124C21.835 25.0524 21.2987 23.6774 20.2537 22.7424C19.3325 21.9036 18.0812 21.4911 16.5275 21.4911C16.1837 21.4911 15.84 21.5049 15.4687 21.5461C13.0212 21.7936 11.165 23.8561 11.165 26.3311V30.0986C11.165 30.4699 10.8625 30.7724 10.4912 30.7724C6.69621 30.7724 3.61621 27.6924 3.61621 23.8974V19.8274C3.61621 18.8649 4.56496 18.2186 5.45871 18.5349C5.82996 18.6586 6.20121 18.7549 6.58621 18.8099C6.75121 18.8374 6.92996 18.8649 7.09496 18.8649C7.31496 18.8924 7.53496 18.9061 7.75496 18.9061C9.34996 18.9061 10.9175 18.3149 12.155 17.2974C13.3375 18.3149 14.8775 18.9061 16.5 18.9061C18.1362 18.9061 19.6487 18.3424 20.8312 17.3249C22.0687 18.3286 23.6087 18.9061 25.1762 18.9061C25.4237 18.9061 25.6712 18.8924 25.905 18.8649C26.07 18.8511 26.2212 18.8374 26.3725 18.8099C26.7987 18.7549 27.1837 18.6311 27.5687 18.5074C28.4625 18.2049 29.3837 18.8649 29.3837 19.7999Z" fill="#549D73"/>
</svg>
